<svg width="20" height="20" viewBox="0 0 20 20" fill="none" xmlns="http://www.w3.org/2000/svg">
<path fill-rule="evenodd" clip-rule="evenodd" d="M8.23894 16.1612V19.9999H12.0777V16.1612H8.23894ZM14.5921 9.34737C15.1103 8.71397 15.5134 8.09977 15.7821 7.48557C16.0508 6.85218 16.1852 6.18039 16.1852 5.41264C16.1852 4.64489 16.0508 3.93472 15.7629 3.26294C15.4558 2.61035 15.0527 2.03454 14.5153 1.5547C13.9779 1.07485 13.3445 0.71017 12.5959 0.422263C11.8474 0.134356 11.022 0 10.1199 0C8.3349 0 6.89537 0.460651 5.80133 1.38195C4.70728 2.28406 4.05469 3.53165 3.82437 5.10554C3.78598 5.31668 3.86276 5.45103 4.09308 5.47023L7.35602 5.95007C7.54796 5.96926 7.68232 5.89249 7.7399 5.68136C7.87425 5.00957 8.14297 4.49134 8.50765 4.12666C8.87233 3.76198 9.37137 3.57004 10.0048 3.57004C10.619 3.57004 11.118 3.74279 11.4635 4.10747C11.809 4.49134 12.0009 4.97119 12.0009 5.547C12.0009 5.93088 11.9433 6.29556 11.7706 6.66024C11.5978 7.02492 11.3483 7.46638 10.9261 7.96542L8.87233 10.7293C8.56523 11.1132 8.46926 12.0921 8.46926 12.0921V14.2418H11.8474V13.8003C11.8474 13.3781 11.9433 13.0518 12.0201 12.8022C12.0892 12.5778 12.2824 12.3379 12.4881 12.0825C12.5112 12.0539 12.5343 12.0251 12.5575 11.9961L14.5921 9.34737Z" fill="black"/>
</svg>
