<svg width="20" height="20" viewBox="0 0 20 20" fill="none" xmlns="http://www.w3.org/2000/svg">
<g clip-path="url(#clip0_279_6825)">
<path fill-rule="evenodd" clip-rule="evenodd" d="M18.9881 8H16.6771C16.5397 7.5375 16.3398 7.1125 16.1149 6.7L17.8139 5C18.2011 4.6125 18.2011 3.975 17.8139 3.5875L16.4022 2.175C16.015 1.7875 15.3779 1.7875 14.9906 2.175L13.2917 3.875C12.8794 3.6625 12.4547 3.4625 11.9925 3.325V1C11.9925 0.45 11.5428 0 10.9931 0H8.99438C8.44472 0 7.995 0.45 7.995 1V3.325C7.50781 3.475 7.05809 3.675 6.62086 3.9125L4.99688 2.2875C4.62211 1.9125 4.00999 1.9125 3.63523 2.2875L2.28607 3.65C1.91131 4.025 1.91131 4.6375 2.28607 5.0125L3.91006 6.6375C3.66021 7.0625 3.46034 7.5125 3.31043 8H0.999375C0.449719 8 0 8.45 0 9V11C0 11.55 0.449719 12 0.999375 12H3.31043C3.44785 12.4625 3.64772 12.8875 3.87258 13.3L2.17364 15C1.78638 15.3875 1.78638 16.025 2.17364 16.4125L3.58526 17.825C3.97252 18.2125 4.60962 18.2125 4.99688 17.825L6.69582 16.125C7.10806 16.35 7.53279 16.5375 7.995 16.675V19C7.995 19.55 8.44472 20 8.99438 20H10.9931C11.5428 20 11.9925 19.55 11.9925 19V16.675C12.4797 16.525 12.9294 16.325 13.3666 16.0875L14.9906 17.7125C15.3654 18.0875 15.9775 18.0875 16.3523 17.7125L17.7139 16.35C18.0887 15.975 18.0887 15.3625 17.7139 14.9875L16.0899 13.3625C16.3273 12.925 16.5397 12.475 16.6896 11.9875H19.0006C19.5503 11.9875 20 11.5375 20 10.9875V8.9875C19.9875 8.45 19.5378 8 18.9881 8ZM9.994 13.75C7.92029 13.75 6.24634 12.075 6.24634 10C6.24634 7.925 7.92029 6.25 9.994 6.25C12.0677 6.25 13.7417 7.925 13.7417 10C13.7417 12.075 12.0677 13.75 9.994 13.75Z" fill="black"/>
</g>
<defs>
<clipPath id="clip0_279_6825">
<rect width="20" height="20" fill="white"/>
</clipPath>
</defs>
</svg>
